{"title":"Snitch.2013.RUS.Xvid.CAMRip-TMD","uid":8202042,"size":1466658861,"categoryP":"video","categoryS":"movies","magnet":"?xt=urn:btih:2c85be7f5f912f678b2e68a9013e24cf46e7f474&amp;dn=Snitch.2013.RUS.Xvid.CAMRip-TMD&amp;tr=udp%3A%2F%2Ftracker.openbittorrent.com%3A80&amp;tr=udp%3A%2F%2Fopen.demonii.com%3A1337&amp;tr=udp%3A%2F%2Ftracker.coppersurfer.tk%3A6969&amp;tr=udp%3A%2F%2Fexodus.desync.com%3A6969","seeders":1,"leechers":0,"uploader":"Gh0stNet","files":2,"time":1362041541,"description":" &lt;a href=&quot;http://www.imdb.com/title/tt0882977/&quot; rel=&quot;nofollow&quot; target=&quot;_NEW&quot;&gt;http://www.imdb.com/title/tt0882977/&lt;/a&gt;\n\n\n\nPlot: A father goes undercover for the DEA in order to free his son who was imprisoned after being set up in drug deal.\n\n\n\nDirector:\nRic Roman Waugh\n\nWriters:\nJustin Haythe, Ric Roman Waugh\n\nStars:\nDwayne Johnson, Susan Sarandon, Jon Bernthal\n\nGenres:\nAction | Drama | Thriller\n\nCountry:\nUSA\n\n\n\n\nFormat : AVI\nFormat/Info : Audio Video Interleave\nFile size : 1.37 GiB\nDuration : 1h 45mn\nOverall bit rate : 1 860 Kbps\nWriting application : VirtualDubMod 1.5.10.3 | www.virtualdub-fr.org || (build 2550/release)\nWriting library : VirtualDubMod build 2550/release\n\nVideo\nID : 0\nFormat : MPEG-4 Visual\nFormat profile : Advanced Simple@L5\nFormat settings, BVOP : 2\nFormat settings, QPel : No\nFormat settings, GMC : No warppoints\nFormat settings, Matrix : Default (MPEG)\nCodec ID : XVID\nCodec ID/Hint : XviD\nDuration : 1h 45mn\nBit rate : 1 722 Kbps\nWidth : 720 pixels\nHeight : 272 pixels\nDisplay aspect ratio : 2.647\nFrame rate : 25.000 fps\nColor space : YUV\nChroma subsampling : 4:2:0\nBit depth : 8 bits\nScan type : Progressive\nCompression mode : Lossy\nBits/(Pixel*Frame) : 0.352\nStream size : 1.26 GiB (93%)\nWriting library : XviD 1.2.1 (UTC 2008-12-04)\n\nAudio\nID : 1\nFormat : MPEG Audio\nFormat version : Version 1\nFormat profile : Layer 3\nCodec ID : 55\nCodec ID/Hint : MP3\nDuration : 1h 45mn\nBit rate mode : Constant\nBit rate : 128 Kbps\nChannel(s) : 2 channels\nSampling rate : 48.0 KHz\nCompression mode : Lossy\nStream size : 96.3 MiB (7%)\nAlignment : Aligned on interleaves\nInterleave, duration : 40 ms (1.00 video frame)\nInterleave, preload duration : 504 ms\nWriting library : LAME3.99r\nEncoding settings : -m s -V 4 -q 2 -lowpass 17 -b 128\n\nScreens:","torrent":{"xt":"urn:btih:2c85be7f5f912f678b2e68a9013e24cf46e7f474","amp;dn":"Snitch.2013.RUS.Xvid.CAMRip-TMD","amp;tr":["udp%3A%2F%2Ftracker.openbittorrent.com%3A80","udp%3A%2F%2Fopen.demonii.com%3A1337","udp%3A%2F%2Ftracker.coppersurfer.tk%3A6969","udp%3A%2F%2Fexodus.desync.com%3A6969"],"infoHash":"2c85be7f5f912f678b2e68a9013e24cf46e7f474","infoHashBuffer":{"type":"Buffer","data":[44,133,190,127,95,145,47,103,139,46,104,169,1,62,36,207,70,231,244,116]},"announce":[],"urlList":[]}}